# xmcd CD database file
#
# Track frame offsets:
#	150
#	17486
#	36733
#	54560
#	73613
#	96507
#	114921
#	129518
#	154248
#	167084
#
# Disc length: 2633 seconds
#
# Revision: 0
# Processed by: cddbd v1.5.1PL0 Copyright (c) Steve Scherf et al.
# Submitted via: CDex 1.51
#
DISCID=870a470a
DTITLE=Fatty George and  His Chicago Jazz Band - Fatty 78
DYEAR=1999
DGENRE=Jazz
TTITLE0=Hotter Than That
TTITLE1=Sugar
TTITLE2=Monday Date
TTITLE3=Exactly Like You
TTITLE4=I Got Rhythm
TTITLE5=Big Boy
TTITLE6='s Wonderful
TTITLE7=If I Had You
TTITLE8=Tangerine
TTITLE9=Georgia On My Mind
EXTD=YEAR: 1999
EXTT0=
EXTT1=
EXTT2=
EXTT3=
EXTT4=
EXTT5=
EXTT6=
EXTT7=
EXTT8=
EXTT9=
PLAYORDER=
